<svg width="45" height="45" viewBox="0 0 45 45" fill="none" xmlns="http://www.w3.org/2000/svg">
<path d="M22.1819 28.5703C28.2108 28.5703 33.0981 23.6829 33.0981 17.654C33.0981 11.6252 28.2108 6.73779 22.1819 6.73779C16.153 6.73779 11.2656 11.6252 11.2656 17.654C11.2656 23.6829 16.153 28.5703 22.1819 28.5703Z" stroke="white" stroke-width="2.8125" stroke-linecap="round" stroke-linejoin="round"/>
<path d="M22.1817 22.5058C24.8612 22.5058 27.0334 20.3337 27.0334 17.6542C27.0334 14.9747 24.8612 12.8025 22.1817 12.8025C19.5022 12.8025 17.3301 14.9747 17.3301 17.6542C17.3301 20.3337 19.5022 22.5058 22.1817 22.5058Z" stroke="white" stroke-width="2.8125" stroke-linecap="round" stroke-linejoin="round"/>
<path d="M20.0707 28.3763L17.936 37.3519C17.8938 37.5225 17.8157 37.6821 17.7069 37.8201C17.5981 37.9582 17.4612 38.0715 17.3053 38.1524C17.1407 38.2239 16.9632 38.2607 16.7837 38.2607C16.6043 38.2607 16.4268 38.2239 16.2622 38.1524L8.2084 34.635C8.03947 34.5551 7.89082 34.438 7.77362 34.2925C7.65641 34.147 7.5737 33.9768 7.53168 33.7947C7.48967 33.6126 7.48944 33.4234 7.53102 33.2412C7.57259 33.059 7.6549 32.8886 7.77175 32.7428L14.0061 24.9316" stroke="white" stroke-width="2.8125" stroke-linecap="round" stroke-linejoin="round"/>
<path d="M24.9224 28.255L27.1056 37.3519C27.149 37.5253 27.2303 37.6871 27.3435 37.8255C27.4567 37.9639 27.5992 38.0755 27.7606 38.1524C27.9207 38.2247 28.0943 38.2622 28.27 38.2622C28.4457 38.2622 28.6194 38.2247 28.7794 38.1524L36.7847 34.6349C36.9562 34.556 37.1069 34.4382 37.2248 34.2908C37.3427 34.1434 37.4246 33.9705 37.4639 33.7859C37.5099 33.6053 37.5119 33.4163 37.4697 33.2348C37.4275 33.0533 37.3423 32.8846 37.2213 32.7428L30.7201 24.4707" stroke="white" stroke-width="2.8125" stroke-linecap="round" stroke-linejoin="round"/>
</svg>
