<svg width="45" height="45" viewBox="0 0 45 45" fill="none" xmlns="http://www.w3.org/2000/svg">
<path d="M6.5625 14.3036C6.5625 11.2658 6.5625 9.74689 7.14153 8.58661C7.65086 7.566 8.46356 6.73622 9.46318 6.21619C10.5996 5.625 12.0872 5.625 15.0625 5.625H29.9375C32.9128 5.625 34.4004 5.625 35.5368 6.21619C36.5364 6.73622 37.3491 7.566 37.8585 8.58661C38.4375 9.74689 38.4375 11.2658 38.4375 14.3036V24.6094C38.4375 27.1367 38.4375 28.4004 38.0331 29.3971C37.4939 30.7262 36.4597 31.7821 35.158 32.3327C34.1817 32.7455 32.9441 32.7455 30.4688 32.7455C29.6036 32.7455 29.171 32.7455 28.7696 32.8423C28.2345 32.9712 27.7362 33.2257 27.314 33.5854C26.9974 33.8551 26.7379 34.2085 26.2188 34.9152L23.6333 38.4348C23.2489 38.9582 23.0566 39.2199 22.8209 39.3135C22.6145 39.3955 22.3855 39.3955 22.1791 39.3135C21.9434 39.2199 21.7511 38.9582 21.3667 38.4348L18.7813 34.9152C18.2621 34.2085 18.0026 33.8551 17.686 33.5854C17.2639 33.2257 16.7655 32.9712 16.2304 32.8423C15.829 32.7455 15.3964 32.7455 14.5313 32.7455C12.0559 32.7455 10.8183 32.7455 9.84199 32.3327C8.54028 31.7821 7.50608 30.7262 6.96689 29.3971C6.5625 28.4004 6.5625 27.1367 6.5625 24.6094V14.3036Z" stroke="white" stroke-width="2.8125" stroke-linecap="round" stroke-linejoin="round"/>
<path fill-rule="evenodd" clip-rule="evenodd" d="M22.4952 15.2629C21.0789 13.6194 18.7173 13.1773 16.9429 14.6823C15.1685 16.1872 14.9187 18.7034 16.3121 20.4833C17.1408 21.5417 19.1703 23.4397 20.6795 24.8045C21.3024 25.3679 21.6139 25.6496 21.9889 25.7638C22.3096 25.8615 22.6807 25.8615 23.0014 25.7638C23.3764 25.6496 23.6879 25.3679 24.3108 24.8045C25.82 23.4397 27.8495 21.5417 28.6782 20.4833C30.0716 18.7034 29.8523 16.1714 28.0474 14.6823C26.2425 13.1931 23.9114 13.6194 22.4952 15.2629Z" stroke="white" stroke-width="2.8125" stroke-linecap="round" stroke-linejoin="round"/>
</svg>
