<svg width="45" height="45" viewBox="0 0 45 45" fill="none" xmlns="http://www.w3.org/2000/svg">
<path d="M13.0747 19.477L19.6675 8.93887C19.923 8.52234 20.2821 8.1791 20.7096 7.94257C21.1372 7.70603 21.6188 7.58428 22.1074 7.58916V7.58916C22.4922 7.57527 22.8759 7.63866 23.2358 7.77559C23.5957 7.91252 23.9245 8.12021 24.2028 8.38638C24.4811 8.65255 24.7032 8.97181 24.8559 9.32527C25.0087 9.67874 25.0891 10.0592 25.0923 10.4443V17.9975H36.487C36.908 18.0111 37.3214 18.1138 37.7 18.2986C38.0785 18.4835 38.4136 18.7463 38.6833 19.07C38.953 19.3936 39.1511 19.7706 39.2647 20.1763C39.3782 20.582 39.4046 21.0071 39.3421 21.4237L37.2657 34.817C37.1771 35.5327 36.8302 36.1915 36.29 36.6695C35.7499 37.1474 35.0539 37.4117 34.3326 37.4125H17.3055C16.495 37.4157 15.6949 37.2291 14.9695 36.8675L13.1007 35.9331" stroke="white" stroke-width="2.8125" stroke-linecap="round" stroke-linejoin="round"/>
<path d="M6.9228 19.4768H13.0744V35.855H6.9228C6.5786 35.855 6.2485 35.7183 6.00512 35.4749C5.76173 35.2315 5.625 34.9014 5.625 34.5572V20.7746C5.625 20.4304 5.76173 20.1003 6.00512 19.8569C6.2485 19.6135 6.5786 19.4768 6.9228 19.4768V19.4768Z" stroke="white" stroke-width="2.8125" stroke-linecap="round" stroke-linejoin="round"/>
</svg>
