<svg width="45" height="45" viewBox="0 0 45 45" fill="none" xmlns="http://www.w3.org/2000/svg">
<path d="M22.5031 28.9904C26.0876 28.9904 28.9935 26.0846 28.9935 22.5C28.9935 18.9155 26.0876 16.0096 22.5031 16.0096C18.9185 16.0096 16.0127 18.9155 16.0127 22.5C16.0127 26.0846 18.9185 28.9904 22.5031 28.9904Z" stroke="white" stroke-width="2.8125" stroke-linecap="round" stroke-linejoin="round"/>
<path d="M22.5032 16.0096V5.625" stroke="white" stroke-width="2.8125" stroke-linecap="round" stroke-linejoin="round"/>
<path d="M28.9929 39.375V35.4807H34.1852C34.8738 35.4807 35.5341 35.2072 36.021 34.7203C36.5079 34.2335 36.7814 33.5731 36.7814 32.8846V22.5C36.7819 19.8677 36.0547 17.2865 34.6803 15.0416C33.3058 12.7966 31.3376 10.9753 28.9929 9.77881" stroke="white" stroke-width="2.8125" stroke-linecap="round" stroke-linejoin="round"/>
<path d="M16.0124 9.77881C13.6668 10.9746 11.6975 12.7956 10.3221 15.0406C8.94668 17.2856 8.21875 19.8671 8.21875 22.5C8.21875 25.1328 8.94668 27.7143 10.3221 29.9593C11.6975 32.2043 13.6668 34.0253 16.0124 35.2211V39.375" stroke="white" stroke-width="2.8125" stroke-linecap="round" stroke-linejoin="round"/>
</svg>
